<svg width="64" height="48" viewBox="0 0 64 48" fill="none" xmlns="http://www.w3.org/2000/svg">
<path d="M53.8971 3.96042C49.8384 2.13002 45.4879 0.777122 40.9384 0.00782604C40.8979 4.79666e-05 40.856 0.00506044 40.8184 0.0221703C40.7809 0.0392802 40.7496 0.067641 40.7289 0.103325C40.1718 1.08219 39.5511 2.35816 39.116 3.3662C34.2909 2.64528 29.3855 2.64528 24.5604 3.3662C24.0758 2.24903 23.5294 1.15971 22.9236 0.103325C22.9031 0.0672017 22.8721 0.0381993 22.8346 0.0201882C22.7972 0.00217701 22.7551 -0.00398658 22.7141 0.0025203C18.1673 0.771816 13.8168 2.12472 9.75542 3.95776C9.72048 3.97242 9.69086 3.99741 9.67053 4.02939C1.41519 16.1657 -0.847604 28.0022 0.263897 39.6902C0.26699 39.7189 0.275875 39.7466 0.290013 39.7716C0.30415 39.7967 0.323244 39.8187 0.346132 39.8361C5.16456 43.3442 10.5389 46.0166 16.244 47.7413C16.2838 47.7536 16.3263 47.7535 16.3661 47.7412C16.4058 47.7289 16.441 47.7049 16.4669 47.6724C17.6924 46.0276 18.7854 44.2901 19.7191 42.465C19.7748 42.3589 19.7218 42.2316 19.6104 42.1891C17.8967 41.5438 16.2363 40.765 14.6444 39.86C14.6158 39.8437 14.5917 39.8205 14.5743 39.7926C14.5568 39.7646 14.5466 39.7328 14.5445 39.6999C14.5424 39.6671 14.5485 39.6342 14.5622 39.6043C14.576 39.5743 14.5969 39.5483 14.6232 39.5284C14.9575 39.2817 15.2917 39.0244 15.61 38.7671C15.6387 38.7439 15.6732 38.7292 15.7097 38.7245C15.7463 38.7198 15.7834 38.7254 15.8169 38.7406C26.2343 43.42 37.5164 43.42 47.8117 38.7406C47.8454 38.7245 47.8829 38.7182 47.9199 38.7224C47.957 38.7267 47.9921 38.7412 48.0213 38.7644C48.3396 39.0244 48.6712 39.2817 49.0081 39.5284C49.0346 39.5479 49.0559 39.5736 49.0701 39.6032C49.0843 39.6329 49.0909 39.6656 49.0893 39.6985C49.0877 39.7314 49.078 39.7633 49.0611 39.7915C49.0441 39.8197 49.0205 39.8432 48.9922 39.86C47.4058 40.7726 45.7558 41.5445 44.0236 42.1865C43.997 42.1961 43.9727 42.2114 43.9525 42.2311C43.9322 42.2509 43.9164 42.2748 43.9061 42.3011C43.8959 42.3275 43.8913 42.3557 43.8928 42.384C43.8943 42.4123 43.9018 42.4399 43.9148 42.465C44.8698 44.2874 45.9627 46.0223 47.1644 47.6697C47.1894 47.7035 47.2242 47.7288 47.2641 47.7421C47.304 47.7554 47.347 47.756 47.3873 47.744C53.1022 46.024 58.4853 43.3504 63.309 39.8361C63.3326 39.8197 63.3523 39.7984 63.367 39.7737C63.3816 39.749 63.3908 39.7214 63.3939 39.6929C64.7203 26.1798 61.1709 14.4388 53.9793 4.03469C53.9617 4.00088 53.9325 3.97453 53.8971 3.96042ZM21.2763 32.5729C18.1407 32.5729 15.5543 29.7371 15.5543 26.2594C15.5543 22.779 18.0903 19.9459 21.2763 19.9459C24.4861 19.9459 27.0487 22.8029 26.9983 26.2594C26.9983 29.7398 24.4622 32.5729 21.2763 32.5729V32.5729ZM42.4319 32.5729C39.2937 32.5729 36.71 29.7371 36.71 26.2594C36.71 22.779 39.2433 19.9459 42.4319 19.9459C45.6418 19.9459 48.2043 22.8029 48.1539 26.2594C48.1539 29.7398 45.6444 32.5729 42.4319 32.5729V32.5729Z" fill="#B5511F"/>
</svg>
