<svg width="1097" height="535" viewBox="0 0 1097 535" fill="none" xmlns="http://www.w3.org/2000/svg">
<path d="M410.728 267.411L495.824 218.168C515.694 206.505 522.606 181.019 510.943 161.149C499.28 141.279 473.794 134.368 453.923 146.031L307.058 230.695L410.728 267.411Z" fill="#EA4335" fill-opacity="0.3"/>
<path d="M474.659 393.543C488.913 393.543 503.168 386.2 510.943 372.809C522.606 352.939 515.695 327.453 495.824 315.79L348.959 231.127C329.089 219.464 303.602 226.375 291.939 246.245C280.277 266.115 287.188 291.601 307.058 303.264L453.924 387.928C460.404 391.816 467.747 393.543 474.659 393.543Z" fill="#4285F4" fill-opacity="0.3"/>
<path d="M620.661 393.543C627.572 393.543 634.916 391.816 641.394 387.928L788.261 303.264L685.887 265.683L599.495 315.358C579.624 327.021 572.713 352.508 584.376 372.378C592.152 386.201 606.406 393.543 620.661 393.543Z" fill="#FBBC04" fill-opacity="0.3"/>
<path d="M767.529 308.88C781.784 308.88 796.038 301.536 803.813 288.145C815.476 268.275 808.566 242.79 788.696 231.127L641.829 146.462C621.959 134.8 596.473 141.711 584.81 161.581C573.147 181.451 580.058 206.937 599.928 218.6L746.795 303.264C753.274 307.151 760.617 308.88 767.529 308.88Z" fill="#34A853" fill-opacity="0.3"/>
</svg>
