<svg width="609" height="509" viewBox="0 0 609 509" fill="none" xmlns="http://www.w3.org/2000/svg">
<path d="M332.416 141.751C363.385 141.751 388.491 117.437 388.491 87.4438C388.491 57.4507 363.385 33.1365 332.416 33.1365C301.446 33.1365 276.34 57.4507 276.34 87.4438C276.34 117.437 301.446 141.751 332.416 141.751Z" fill="#A0616A"/>
<path d="M290.562 114.597C290.562 114.597 301.127 191.73 284.873 200.387C268.62 209.045 381.583 209.832 381.583 209.832C381.583 209.832 356.39 142.932 367.768 122.468L290.562 114.597Z" fill="#A0616A"/>
<path d="M464.07 210.222L454.676 251.653L434.811 339.307L434.216 344.107L427.361 399.68L422.801 436.599L419.743 461.398C401.152 470.652 387.677 477.04 387.677 477.04C387.677 477.04 386.518 471.412 384.65 464.212C371.603 468 347.46 474.285 327.001 475.541C334.451 483.583 337.875 491.138 333.231 496.714C319.215 513.522 261.352 478.31 241.114 465.179C240.642 468.323 240.464 471.502 240.58 474.676L225.092 463.141L226.625 436.599L229.21 391.69L232.459 335.371C231.434 332.959 230.576 330.485 229.889 327.963C225.146 311.628 219.388 279.007 214.973 251.653C211.42 229.638 208.751 211.035 208.186 207.076C208.11 206.559 208.072 206.293 208.072 206.293L293.806 169.604C299.899 183.289 328.35 187.402 328.35 187.402C351.921 185.829 370.398 173.791 370.398 173.791L464.07 210.222Z" fill="#D0CDE1"/>
<path d="M394.182 461.302C394.182 461.302 390.552 462.506 384.65 464.212C371.603 468 347.46 474.285 327.001 475.541C309.385 476.634 294.5 474.004 291.778 462.875C290.611 458.089 292.266 454.153 295.873 450.919C306.64 441.251 334.763 437.788 357.068 436.599C363.367 436.266 369.193 436.111 374.043 436.052C382.278 435.949 387.677 436.111 387.677 436.111L387.807 436.599L394.182 461.302Z" fill="#A0616A"/>
<path d="M285.766 36.074L275.281 32.0088C275.281 32.0088 297.204 8.63431 327.705 10.667L319.127 1.52032C319.127 1.52032 340.096 -6.60987 359.159 14.732C369.18 25.9509 380.775 39.1382 388.003 53.9936H399.231L394.545 63.987L410.947 73.9804L394.112 72.1854C395.115 77.6579 395.269 83.2448 394.569 88.7613C393.847 94.2795 390.939 99.3102 386.459 102.791C386.459 102.791 373.456 76.7252 373.456 72.66V82.8229C373.456 82.8229 362.972 73.6764 362.972 67.5787L357.253 74.6927L354.393 63.5135L319.127 74.6927L324.845 65.5462L302.923 68.595L311.501 57.4158C311.501 57.4158 286.719 70.6275 285.766 81.8067C284.813 92.9857 277.559 103.579 277.559 103.579C277.559 103.579 258.124 51.3181 285.766 36.074Z" fill="#412E2E"/>
<path d="M525.022 400.692C519.31 406.689 505.157 415.721 488 425.499C481.617 429.132 474.823 432.877 467.891 436.599C451.351 445.483 434.033 454.286 419.743 461.398C401.152 470.651 387.677 477.04 387.677 477.04C387.677 477.04 386.518 471.412 384.65 464.212C382.149 454.574 378.382 442.115 374.455 436.599C374.317 436.407 374.18 436.229 374.043 436.052C372.899 434.597 371.748 433.748 370.611 433.748L427.361 399.68L451.885 384.954L434.216 344.107L412.056 292.869L425.432 251.653L438.876 210.222H464.07C464.07 210.222 472.413 227.858 483.081 252.45C484.675 256.128 486.322 259.961 488 263.919C509.946 315.615 537.307 387.805 525.022 400.692Z" fill="#D0CDE1"/>
<path d="M333.231 496.714C319.215 513.522 261.352 478.31 241.114 465.179C236.706 462.321 234.083 460.512 234.083 460.512L252.598 436.599L258.462 429.029C258.462 429.029 263.708 431.725 271.463 436.111C271.746 436.274 272.028 436.436 272.317 436.599C279.005 440.402 287.401 445.372 295.873 450.918C307.563 458.577 319.383 467.313 327.001 475.54C334.451 483.583 337.875 491.138 333.231 496.714Z" fill="#A0616A"/>
<path d="M271.463 436.111C269.394 436.104 267.328 436.267 265.287 436.599C247.755 439.516 242.585 454.884 241.114 465.179C240.642 468.323 240.464 471.502 240.58 474.676L225.092 463.141L219.449 458.939C205.868 454.353 193.766 446.207 183.273 436.599C174.171 428.116 166.005 418.738 158.91 408.616C151.842 398.64 145.542 388.175 140.059 377.303C138.53 374.27 137.707 370.948 137.651 367.572C137.594 364.196 138.304 360.85 139.731 357.77L158.91 316.376L186.941 255.877C187.147 254.437 187.373 253.029 187.62 251.653C193.179 220.783 208.072 207.076 208.072 207.076H219.449L227.06 251.653L236.515 307.034L229.889 327.963L214.576 376.299L229.21 391.69L271.463 436.111Z" fill="#D0CDE1"/>
<path d="M284.34 307.078L294.067 318.068C297.68 317.401 301.454 316.616 305.341 315.736L302.547 307.078L309.378 314.796C350.554 304.988 401.591 285.919 401.591 285.919C401.591 285.919 346.491 289.832 305.35 281.127C287.147 277.276 268.419 286.015 260.949 302.546C256.608 312.154 257.289 320.479 272.688 320.479C277.891 320.393 283.08 319.92 288.208 319.065L284.34 307.078Z" fill="#FF7369"/>
<path d="M506.072 487.704V492.187C506.075 493.417 505.839 494.637 505.378 495.783C505.173 496.294 504.926 496.788 504.639 497.26C503.73 498.738 502.44 499.961 500.896 500.81C499.352 501.659 497.607 502.106 495.831 502.105H155.311C153.535 502.106 151.789 501.659 150.245 500.81C148.701 499.961 147.412 498.738 146.503 497.26C146.215 496.788 145.968 496.294 145.763 495.783C145.302 494.637 145.067 493.417 145.069 492.187V487.704C145.069 486.401 145.334 485.111 145.848 483.908C146.363 482.704 147.117 481.611 148.068 480.69C149.019 479.769 150.148 479.038 151.391 478.54C152.634 478.041 153.966 477.785 155.311 477.786H174.939V475.696C174.939 475.641 174.95 475.587 174.971 475.537C174.993 475.487 175.024 475.441 175.064 475.403C175.103 475.364 175.15 475.334 175.202 475.313C175.254 475.293 175.31 475.282 175.366 475.282H185.607C185.663 475.282 185.719 475.293 185.771 475.313C185.822 475.334 185.869 475.364 185.909 475.403C185.949 475.441 185.98 475.487 186.002 475.537C186.023 475.587 186.034 475.641 186.034 475.696V477.786H192.432V475.696C192.432 475.641 192.443 475.587 192.464 475.537C192.486 475.487 192.517 475.441 192.557 475.403C192.596 475.364 192.643 475.334 192.695 475.313C192.747 475.293 192.803 475.282 192.859 475.282H203.1C203.156 475.282 203.212 475.293 203.264 475.313C203.315 475.334 203.363 475.364 203.402 475.403C203.442 475.441 203.473 475.487 203.495 475.537C203.516 475.587 203.527 475.641 203.527 475.696V477.786H209.933V475.696C209.932 475.641 209.943 475.587 209.965 475.537C209.986 475.487 210.018 475.441 210.057 475.403C210.097 475.364 210.144 475.334 210.196 475.313C210.248 475.293 210.303 475.282 210.36 475.282H220.601C220.657 475.282 220.712 475.293 220.764 475.313C220.816 475.334 220.863 475.364 220.903 475.403C220.943 475.441 220.974 475.487 220.995 475.537C221.017 475.587 221.028 475.641 221.028 475.696V477.786H227.426V475.696C227.426 475.641 227.437 475.587 227.458 475.537C227.479 475.487 227.511 475.441 227.551 475.403C227.59 475.364 227.637 475.334 227.689 475.313C227.741 475.293 227.797 475.282 227.853 475.282H238.094C238.15 475.282 238.206 475.293 238.257 475.313C238.309 475.334 238.356 475.364 238.396 475.403C238.436 475.441 238.467 475.487 238.489 475.537C238.51 475.587 238.521 475.641 238.521 475.696V477.786H244.919V475.696C244.919 475.641 244.93 475.587 244.951 475.537C244.972 475.487 245.004 475.441 245.044 475.403C245.083 475.364 245.13 475.334 245.182 475.313C245.234 475.293 245.29 475.282 245.346 475.282H255.587C255.643 475.282 255.699 475.293 255.75 475.313C255.802 475.334 255.849 475.364 255.889 475.403C255.929 475.441 255.96 475.487 255.982 475.537C256.003 475.587 256.014 475.641 256.014 475.696V477.786H262.419V475.696C262.419 475.641 262.43 475.587 262.452 475.537C262.473 475.487 262.505 475.441 262.544 475.403C262.584 475.364 262.631 475.334 262.683 475.313C262.735 475.293 262.79 475.282 262.847 475.282H273.088C273.144 475.282 273.199 475.293 273.251 475.313C273.303 475.334 273.35 475.364 273.39 475.403C273.43 475.441 273.461 475.487 273.482 475.537C273.504 475.587 273.515 475.641 273.515 475.696V477.786H279.913V475.696C279.912 475.641 279.923 475.587 279.945 475.537C279.966 475.487 279.998 475.441 280.037 475.403C280.077 475.364 280.124 475.334 280.176 475.313C280.228 475.293 280.284 475.282 280.34 475.282H360.561C360.617 475.282 360.672 475.293 360.724 475.313C360.776 475.334 360.823 475.364 360.863 475.403C360.903 475.441 360.934 475.487 360.955 475.537C360.977 475.587 360.988 475.641 360.988 475.696V477.786H367.393V475.696C367.393 475.641 367.404 475.587 367.426 475.537C367.447 475.487 367.478 475.441 367.518 475.403C367.558 475.364 367.605 475.334 367.657 475.313C367.709 475.293 367.764 475.282 367.82 475.282H378.062C378.174 475.283 378.282 475.327 378.362 475.404C378.442 475.482 378.487 475.586 378.489 475.696V477.786H384.886V475.696C384.886 475.641 384.897 475.587 384.919 475.537C384.94 475.487 384.972 475.441 385.011 475.403C385.051 475.364 385.098 475.334 385.15 475.313C385.202 475.293 385.257 475.282 385.313 475.282H395.555C395.611 475.282 395.666 475.293 395.718 475.313C395.77 475.334 395.817 475.364 395.857 475.403C395.896 475.441 395.928 475.487 395.949 475.537C395.971 475.587 395.982 475.641 395.982 475.696V477.786H402.38V475.696C402.379 475.641 402.39 475.587 402.412 475.537C402.433 475.487 402.465 475.441 402.504 475.403C402.544 475.364 402.591 475.334 402.643 475.313C402.695 475.293 402.75 475.282 402.807 475.282H413.048C413.104 475.282 413.159 475.293 413.211 475.313C413.263 475.334 413.31 475.364 413.35 475.403C413.39 475.441 413.421 475.487 413.442 475.537C413.464 475.587 413.475 475.641 413.475 475.696V477.786H419.88V475.696C419.88 475.641 419.891 475.587 419.913 475.537C419.934 475.487 419.965 475.441 420.005 475.403C420.045 475.364 420.092 475.334 420.144 475.313C420.196 475.293 420.251 475.282 420.307 475.282H430.548C430.661 475.283 430.768 475.328 430.846 475.405C430.925 475.483 430.969 475.587 430.968 475.696V477.786H437.373V475.696C437.373 475.641 437.384 475.587 437.406 475.537C437.427 475.487 437.459 475.441 437.498 475.403C437.538 475.364 437.585 475.334 437.637 475.313C437.689 475.293 437.744 475.282 437.8 475.282H448.042C448.098 475.282 448.153 475.293 448.205 475.313C448.257 475.334 448.304 475.364 448.344 475.403C448.383 475.441 448.415 475.487 448.436 475.537C448.458 475.587 448.469 475.641 448.469 475.696V477.786H454.866V475.696C454.866 475.641 454.877 475.587 454.899 475.537C454.92 475.487 454.952 475.441 454.991 475.403C455.031 475.364 455.078 475.334 455.13 475.313C455.182 475.293 455.237 475.282 455.293 475.282H465.535C465.591 475.282 465.646 475.293 465.698 475.313C465.75 475.334 465.797 475.364 465.837 475.403C465.876 475.441 465.908 475.487 465.929 475.537C465.951 475.587 465.962 475.641 465.962 475.696V477.786H495.831C497.176 477.785 498.508 478.041 499.751 478.54C500.993 479.038 502.122 479.769 503.073 480.69C504.025 481.611 504.779 482.704 505.293 483.908C505.808 485.111 506.073 486.401 506.072 487.704Z" fill="#563D3D"/>
<path d="M605.09 495.783H46.135V497.26H605.09V495.783Z" fill="#563D3D"/>
<path d="M478.654 298.918H351.731V296.385H294.18V298.918H166.734C164.457 298.918 162.273 299.794 160.663 301.353C159.053 302.913 158.149 305.028 158.149 307.233V475.548C158.149 477.754 159.053 479.868 160.663 481.428C162.273 482.987 164.457 483.863 166.734 483.863H478.654C480.931 483.863 483.115 482.987 484.725 481.428C486.335 479.868 487.239 477.754 487.239 475.548V307.233C487.239 306.141 487.017 305.06 486.586 304.051C486.154 303.042 485.522 302.126 484.725 301.353C483.927 300.581 482.981 299.969 481.939 299.551C480.898 299.133 479.781 298.918 478.654 298.918Z" fill="#563D3D"/>
<path d="M322.944 376.144C333.472 376.144 342.008 367.878 342.008 357.681C342.008 347.484 333.472 339.218 322.944 339.218C312.415 339.218 303.88 347.484 303.88 357.681C303.88 367.878 312.415 376.144 322.944 376.144Z" stroke="#D0CDE1" stroke-width="2" stroke-miterlimit="10"/>
<path d="M316.843 382.791C327.372 382.791 335.907 374.525 335.907 364.328C335.907 354.131 327.372 345.865 316.843 345.865C306.315 345.865 297.779 354.131 297.779 364.328C297.779 374.525 306.315 382.791 316.843 382.791Z" fill="#D0CDE1"/>
<path d="M82.6965 488.322H61.3448V509H82.6965V488.322Z" fill="#D0CDE1"/>
<path d="M69.736 472.075V497.184H95.6629V472.075H69.736ZM94.5344 496.091H70.8569V473.168H94.5344V496.091Z" fill="#563D3D"/>
<path d="M576.834 488.322H555.483V509H576.834V488.322Z" fill="#D0CDE1"/>
<path d="M563.874 472.075V497.184H589.801V472.075H563.874ZM588.672 496.091H564.995V473.168H588.672V496.091Z" fill="#563D3D"/>
<path d="M72.1228 169.942C105.537 169.942 132.625 143.708 132.625 111.348C132.625 78.9873 105.537 52.7539 72.1228 52.7539C38.7086 52.7539 11.6211 78.9873 11.6211 111.348C11.6211 143.708 38.7086 169.942 72.1228 169.942Z" fill="#E7E7E7"/>
<path d="M93.2068 41.7187C87.7287 41.044 82.1844 41.044 76.7063 41.7187C64.502 43.2706 53.0135 48.1806 43.604 55.8661C34.1946 63.5516 27.2592 73.6899 23.6207 85.0782C21.9659 90.2682 21.0288 95.6477 20.8339 101.076C20.8065 101.831 20.7881 102.594 20.7881 103.358C20.8051 119.835 27.5711 135.632 39.6014 147.283C51.6316 158.934 67.9433 165.486 84.9566 165.503C86.3225 165.503 87.6883 165.458 89.0359 165.379C92.1991 165.186 95.343 164.765 98.4412 164.118C113.236 161.037 126.431 152.991 135.695 141.402C144.959 129.813 149.696 115.426 149.07 100.783C148.444 86.1391 142.494 72.1809 132.273 61.3735C122.051 50.566 108.214 43.6046 93.2068 41.7187H93.2068ZM105.041 160.514H105.032C99.8643 162.221 94.4852 163.257 89.0358 163.594C87.6882 163.683 86.3224 163.727 84.9565 163.727C68.4304 163.708 52.587 157.341 40.9013 146.024C29.2156 134.707 22.6416 119.363 22.6214 103.358C22.6214 102.594 22.6398 101.831 22.6672 101.076C23.2974 85.4784 30.1332 70.7214 41.7435 59.8942C53.3538 49.067 68.8386 43.0089 84.9565 42.9882C99.7245 42.989 114.013 48.0674 125.275 57.3185C136.538 66.5696 144.044 79.3926 146.455 93.503C148.866 107.613 146.027 122.095 138.443 134.367C130.858 146.639 119.021 155.905 105.041 160.514H105.041Z" fill="#563D3D"/>
<path d="M85.8732 46.5393H84.0398V58.9683H85.8732V46.5393Z" fill="#563D3D"/>
<path d="M44.12 62.5533L42.8236 63.8088L51.8984 72.5975L53.1948 71.342L44.12 62.5533Z" fill="#563D3D"/>
<path d="M26.2882 102.47V104.245H39.1219V102.47H26.2882Z" fill="#563D3D"/>
<path d="M42.8236 142.907L44.12 144.162L53.1948 135.373L51.8984 134.118L42.8236 142.907Z" fill="#563D3D"/>
<path d="M116.718 71.3419L118.015 72.5974L127.09 63.8088L125.793 62.5532L116.718 71.3419Z" fill="#563D3D"/>
<path d="M130.791 102.47V104.245H143.625V102.47H130.791Z" fill="#563D3D"/>
<path d="M118.015 134.118L116.718 135.374L125.793 144.162L127.09 142.907L118.015 134.118Z" fill="#563D3D"/>
<path d="M85.8732 147.747H84.0398V160.176H85.8732V147.747Z" fill="#563D3D"/>
<path d="M87.7066 99.8065C86.9133 99.2302 85.9483 98.9187 84.9566 98.9187C83.9648 98.9187 82.9999 99.2302 82.2065 99.8065C81.6634 100.206 81.2161 100.715 80.8956 101.298C80.4895 102.049 80.3139 102.897 80.3894 103.741C80.4649 104.585 80.7885 105.391 81.3219 106.063C81.8552 106.735 82.5761 107.245 83.3993 107.533C84.2224 107.821 85.1135 107.875 85.9671 107.688C86.8208 107.501 87.6013 107.081 88.2165 106.478C88.8317 105.876 89.2558 105.115 89.4388 104.286C89.6217 103.457 89.5558 102.595 89.2489 101.801C88.942 101.007 88.4068 100.315 87.7067 99.8065H87.7066ZM84.9566 106.021C84.2278 106.019 83.5296 105.738 83.0143 105.239C82.499 104.74 82.2086 104.063 82.2065 103.358C82.21 102.819 82.3792 102.294 82.6924 101.848C82.961 101.472 83.3254 101.168 83.7504 100.968C84.1754 100.768 84.6467 100.677 85.1185 100.704C85.5904 100.732 86.047 100.877 86.444 101.125C86.8411 101.374 87.1653 101.717 87.3852 102.122C87.6051 102.528 87.7133 102.981 87.6994 103.439C87.6855 103.896 87.5498 104.343 87.3056 104.735C87.0614 105.127 86.7169 105.451 86.3054 105.676C85.8939 105.902 85.4293 106.02 84.9566 106.021V106.021Z" fill="#563D3D"/>
<path d="M93.2068 26.1201H76.7063V42.1003H93.2068V26.1201Z" fill="#563D3D"/>
<path d="M84.9566 28.7836C97.1072 28.7836 106.957 25.405 106.957 21.2374C106.957 17.0697 97.1072 13.6912 84.9566 13.6912C72.8059 13.6912 62.9559 17.0697 62.9559 21.2374C62.9559 25.405 72.8059 28.7836 84.9566 28.7836Z" fill="#563D3D"/>
<path d="M87.7066 69.6218H82.2064V99.8066H87.7066V69.6218Z" fill="#563D3D"/>
<path d="M172.338 162.798H0V164.573H172.338V162.798Z" fill="#563D3D"/>
<path d="M114.836 442.926C115.548 466.522 101.312 475.169 83.4471 475.674C83.0321 475.686 82.619 475.693 82.2078 475.696C81.3793 475.702 80.5588 475.689 79.7464 475.656C63.5891 475.006 50.7996 466.7 50.1379 444.756C49.4531 422.047 78.5576 392.541 80.7413 390.359L80.7451 390.357C80.8281 390.273 80.8706 390.232 80.8706 390.232C80.8706 390.232 114.125 419.333 114.836 442.926Z" fill="#D0CDE1"/>
<path d="M82.1609 472.098L93.5096 455.754L82.1841 473.857L82.2078 475.696C81.3793 475.702 80.5588 475.689 79.7464 475.656L80.3093 452.015L80.2939 451.832L80.3146 451.797L80.3685 449.563L67.9404 432.088L80.3539 447.891L80.3979 448.363L80.8231 430.501L70.0885 412.384L80.8536 427.364L80.7413 390.359L80.7415 390.235L80.7451 390.356L81.4577 419.521L91.241 407.675L81.4898 422.034L81.7033 438.011L90.7059 422.418L81.7364 440.36L81.8552 449.244L94.9474 427.523L81.895 452.343L82.1609 472.098Z" fill="#563D3D"/>
<path d="M608.974 442.926C609.686 466.522 595.45 475.169 577.585 475.674C577.17 475.686 576.757 475.693 576.346 475.696C575.517 475.702 574.697 475.689 573.884 475.656C557.727 475.006 544.938 466.7 544.276 444.756C543.591 422.047 572.696 392.541 574.879 390.359L574.883 390.357C574.966 390.273 575.009 390.232 575.009 390.232C575.009 390.232 608.263 419.333 608.974 442.926Z" fill="#D0CDE1"/>
<path d="M576.299 472.098L587.647 455.754L576.322 473.857L576.346 475.696C575.517 475.702 574.697 475.689 573.884 475.656L574.447 452.015L574.432 451.832L574.453 451.797L574.506 449.563L562.078 432.088L574.492 447.891L574.536 448.363L574.961 430.501L564.226 412.384L574.992 427.364L574.879 390.359L574.879 390.235L574.883 390.356L575.596 419.521L585.379 407.675L575.628 422.034L575.841 438.011L584.844 422.418L575.874 440.36L575.993 449.244L589.085 427.523L576.033 452.343L576.299 472.098Z" fill="#563D3D"/>
</svg>
