<svg width="56" height="56" viewBox="0 0 56 56" fill="none" xmlns="http://www.w3.org/2000/svg">
<path d="M28.2872 14.1688C20.543 14.1688 14.2965 20.4154 14.2965 28.1596C14.2965 35.9038 20.543 42.1503 28.2872 42.1503C36.0314 42.1503 42.2779 35.9038 42.2779 28.1596C42.2779 20.4154 36.0314 14.1688 28.2872 14.1688ZM28.2872 37.2553C23.2827 37.2553 19.1914 33.1762 19.1914 28.1596C19.1914 23.1429 23.2705 19.0638 28.2872 19.0638C33.3039 19.0638 37.383 23.1429 37.383 28.1596C37.383 33.1762 33.2917 37.2553 28.2872 37.2553ZM46.1135 13.5966C46.1135 15.4108 44.6523 16.8598 42.8502 16.8598C41.0359 16.8598 39.5869 15.3987 39.5869 13.5966C39.5869 11.7944 41.0481 10.3333 42.8502 10.3333C44.6523 10.3333 46.1135 11.7944 46.1135 13.5966ZM55.3797 16.9085C55.1727 12.5372 54.1743 8.66511 50.9719 5.47489C47.7817 2.28466 43.9096 1.2862 39.5382 1.06702C35.0329 0.811318 21.5293 0.811318 17.024 1.06702C12.6649 1.27402 8.79276 2.27249 5.59036 5.46271C2.38797 8.65293 1.40168 12.525 1.1825 16.8964C0.926796 21.4016 0.926796 34.9053 1.1825 39.4106C1.3895 43.7819 2.38797 47.654 5.59036 50.8442C8.79276 54.0344 12.6527 55.0329 17.024 55.2521C21.5293 55.5078 35.0329 55.5078 39.5382 55.2521C43.9096 55.0451 47.7817 54.0466 50.9719 50.8442C54.1621 47.654 55.1606 43.7819 55.3797 39.4106C55.6354 34.9053 55.6354 21.4138 55.3797 16.9085ZM49.5594 44.2446C48.6096 46.6312 46.771 48.4698 44.3723 49.4318C40.7802 50.8564 32.2567 50.5276 28.2872 50.5276C24.3177 50.5276 15.782 50.8442 12.2022 49.4318C9.81558 48.482 7.97694 46.6434 7.01501 44.2446C5.59036 40.6526 5.91913 32.1291 5.91913 28.1596C5.91913 24.19 5.60254 15.6544 7.01501 12.0745C7.96477 9.68793 9.8034 7.84929 12.2022 6.88735C15.7942 5.46271 24.3177 5.79147 28.2872 5.79147C32.2567 5.79147 40.7924 5.47489 44.3723 6.88735C46.7588 7.83711 48.5975 9.67575 49.5594 12.0745C50.9841 15.6665 50.6553 24.19 50.6553 28.1596C50.6553 32.1291 50.9841 40.6647 49.5594 44.2446Z" fill="#8B231C"/>
</svg>
