<svg width="50" height="48" viewBox="0 0 50 48" fill="none" xmlns="http://www.w3.org/2000/svg">
<path d="M11.284 47.5144V15.4565H0.628663V47.5144H11.284ZM5.95773 11.0769C9.67345 11.0769 11.9863 8.61526 11.9863 5.53899C11.9171 2.39335 9.67359 0 6.02824 0C2.38346 0 0 2.39339 0 5.53899C0 8.6154 2.31229 11.0769 5.88817 11.0769H5.9574H5.95773ZM17.1818 47.5144H27.8371V29.6117C27.8371 28.6536 27.9064 27.6965 28.1878 27.0115C28.9581 25.0972 30.7113 23.1145 33.6548 23.1145C37.5105 23.1145 39.053 26.0544 39.053 30.3639V47.5142H49.7077V29.1325C49.7077 19.2856 44.4509 14.7039 37.4403 14.7039C31.6922 14.7039 29.1684 17.9169 27.7663 20.1053H27.8374V15.4559H17.182C17.3218 18.464 17.182 47.5137 17.182 47.5137L17.1818 47.5144Z" fill="#8B231C"/>
</svg>
