<svg width="155" height="155" viewBox="0 0 155 155" fill="none" xmlns="http://www.w3.org/2000/svg">
<path d="M42.3828 113.828H54.4922C55.1582 113.828 55.7031 113.283 55.7031 112.617V42.3828C55.7031 41.7168 55.1582 41.1719 54.4922 41.1719H42.3828C41.7168 41.1719 41.1719 41.7168 41.1719 42.3828V112.617C41.1719 113.283 41.7168 113.828 42.3828 113.828ZM71.4453 71.4453H83.5547C84.2207 71.4453 84.7656 70.9004 84.7656 70.2344V42.3828C84.7656 41.7168 84.2207 41.1719 83.5547 41.1719H71.4453C70.7793 41.1719 70.2344 41.7168 70.2344 42.3828V70.2344C70.2344 70.9004 70.7793 71.4453 71.4453 71.4453ZM100.508 82.3438H112.617C113.283 82.3438 113.828 81.7988 113.828 81.1328V42.3828C113.828 41.7168 113.283 41.1719 112.617 41.1719H100.508C99.8418 41.1719 99.2969 41.7168 99.2969 42.3828V81.1328C99.2969 81.7988 99.8418 82.3438 100.508 82.3438ZM133.203 16.9531H21.7969C19.1177 16.9531 16.9531 19.1177 16.9531 21.7969V133.203C16.9531 135.882 19.1177 138.047 21.7969 138.047H133.203C135.882 138.047 138.047 135.882 138.047 133.203V21.7969C138.047 19.1177 135.882 16.9531 133.203 16.9531ZM127.148 127.148H27.8516V27.8516H127.148V127.148Z" fill="#F9F9F9"/>
</svg>
