<svg width="64" height="52" viewBox="0 0 64 52" fill="none" xmlns="http://www.w3.org/2000/svg">
<path d="M63.0182 6.57684C60.7219 7.59434 58.2552 8.28184 55.6619 8.59259C58.3377 6.99152 60.3395 4.47162 61.2939 1.50309C58.78 2.99631 56.0286 4.04738 53.1594 4.61059C51.23 2.55047 48.6743 1.18499 45.8893 0.726143C43.1043 0.2673 40.2457 0.740766 37.7573 2.07303C35.269 3.4053 33.29 5.52183 32.1278 8.09403C30.9656 10.6662 30.6851 13.5502 31.3299 16.2981C26.236 16.0423 21.2529 14.7184 16.7038 12.4121C12.1548 10.1058 8.14147 6.86878 4.92441 2.91109C3.82441 4.80859 3.19191 7.00859 3.19191 9.35159C3.19068 11.4608 3.7101 13.5378 4.70408 15.3981C5.69805 17.2585 7.13585 18.8447 8.88991 20.0161C6.85567 19.9514 4.86631 19.4017 3.08741 18.4128V18.5778C3.08721 21.5361 4.1105 24.4034 5.98366 26.6931C7.85683 28.9828 10.4645 30.5539 13.3642 31.1398C11.4771 31.6506 9.49859 31.7258 7.57816 31.3598C8.39628 33.9053 9.9899 36.1312 12.1359 37.7259C14.2819 39.3206 16.8729 40.2043 19.5462 40.2533C15.0082 43.8157 9.40385 45.7481 3.63466 45.7396C2.61271 45.7399 1.59162 45.6802 0.57666 45.5608C6.43272 49.3261 13.2496 51.3243 20.2117 51.3166C43.7792 51.3166 56.6629 31.7971 56.6629 14.8681C56.6629 14.3181 56.6492 13.7626 56.6244 13.2126C59.1305 11.4003 61.2937 9.15605 63.0127 6.58509L63.0182 6.57684Z" fill="#8B231C"/>
</svg>
